<?xml version="1.0" encoding="UTF-8"?>
<svg id="Layer_2" data-name="Layer 2" xmlns="http://www.w3.org/2000/svg" viewBox="0 0 401.418 102.252">
  <defs>
    <style>
      .cls-1 {
        fill: none;
        stroke: #fff;
        stroke-linecap: round;
        stroke-linejoin: round;
        stroke-width: 2.252px;
      }

      .cls-2 {
        fill: #fff;
      }
    </style>
  </defs>
  <g id="Layer_1-2" data-name="Layer 1">
    <g>
      <circle class="cls-1" cx="51.126" cy="51.126" r="50"/>
      <g>
        <path class="cls-1" d="M82.528,57.848C28.298,43.972,50.899,14.137,50.899,14.137c0,0,8.391,8.676.185,26.575"/>
        <path class="cls-1" d="M47.947,46.026c-5.178,6.861-14.678,10.907-28.224,11.8"/>
        <path class="cls-1" d="M19.724,44.404c54.231,13.876,31.629,43.71,31.629,43.71,0,0-8.391-8.676-.185-26.575"/>
        <path class="cls-1" d="M54.754,55.651c5.269-6.512,14.611-10.357,27.774-11.224"/>
      </g>
    </g>
    <g>
      <path class="cls-2" d="M155.11,23.217h-2.404c-.179-.895-.5-1.724-.965-2.486s-1.046-1.43-1.745-2.001c-.699-.571-1.491-1.014-2.378-1.33-.886-.315-1.845-.473-2.876-.473-1.653,0-3.16.43-4.52,1.291s-2.446,2.125-3.26,3.791c-.814,1.666-1.221,3.705-1.221,6.117,0,2.429.406,4.474,1.221,6.136.813,1.662,1.9,2.921,3.26,3.778s2.866,1.285,4.52,1.285c1.031,0,1.99-.158,2.876-.473.887-.315,1.679-.756,2.378-1.323s1.28-1.234,1.745-2.001.786-1.598.965-2.493h2.404c-.214,1.202-.612,2.32-1.195,3.355-.584,1.036-1.326,1.941-2.225,2.717-.899.775-1.933,1.381-3.101,1.815s-2.45.652-3.848.652c-2.199,0-4.15-.552-5.855-1.655-1.704-1.104-3.04-2.661-4.008-4.673-.967-2.011-1.451-4.385-1.451-7.121s.484-5.109,1.451-7.121c.968-2.012,2.304-3.569,4.008-4.673,1.705-1.104,3.656-1.655,5.855-1.655,1.397,0,2.68.215,3.848.646s2.201,1.035,3.101,1.815c.898.78,1.641,1.685,2.225,2.716.583,1.031.981,2.152,1.195,3.362Z"/>
      <path class="cls-2" d="M168.042,41.217V15.035h2.391v24.034h12.477v2.148h-14.867Z"/>
      <path class="cls-2" d="M195.639,41.217h-2.506l9.524-26.182h2.557l9.524,26.182h-2.506l-8.207-23.075h-.18l-8.207,23.075ZM197.442,31.181h12.988v2.148h-12.988v-2.148Z"/>
      <path class="cls-2" d="M226.534,41.217V15.035h8.45c1.857,0,3.411.334,4.659,1.003,1.249.669,2.19,1.594,2.826,2.774.635,1.181.952,2.534.952,4.059s-.317,2.872-.952,4.04c-.636,1.167-1.575,2.08-2.819,2.735-1.244.657-2.787.984-4.628.984h-7.197v-2.186h7.134c1.363,0,2.499-.226,3.406-.677.908-.452,1.586-1.095,2.033-1.931.447-.835.671-1.824.671-2.966s-.226-2.141-.678-2.998c-.451-.856-1.131-1.519-2.039-1.988-.907-.469-2.052-.703-3.433-.703h-5.995v24.034h-2.391ZM238.077,29.404l6.443,11.812h-2.762l-6.379-11.812h2.697Z"/>
      <path class="cls-2" d="M258.95,15.035v26.182h-2.391V15.035h2.391Z"/>
      <path class="cls-2" d="M271.625,17.183v-2.147h18.984v2.147h-8.297v24.034h-2.391v-24.034h-8.297Z"/>
      <path class="cls-2" d="M300.832,15.035h2.762l7.76,12.426h.23l7.76-12.426h2.762l-9.448,14.842v11.339h-2.378v-11.339l-9.447-14.842Z"/>
      <path class="cls-2" d="M351.385,15.035l8.182,23.075h.23l8.182-23.075h2.506l-9.524,26.182h-2.557l-9.524-26.182h2.506Z"/>
      <path class="cls-2" d="M382.319,41.217h-2.506l9.524-26.182h2.557l9.524,26.182h-2.506l-8.207-23.075h-.18l-8.207,23.075ZM384.121,31.181h12.988v2.148h-12.988v-2.148Z"/>
      <path class="cls-2" d="M148.82,67.58c-.146-1.458-.789-2.617-1.931-3.478s-2.578-1.291-4.309-1.291c-1.219,0-2.29.209-3.215.626s-1.649.995-2.173,1.732c-.524.737-.786,1.575-.786,2.512,0,.69.148,1.296.447,1.815.298.52.7.965,1.208,1.336.507.371,1.069.688,1.688.953.617.264,1.242.485,1.873.665l2.761.792c.835.23,1.671.524,2.506.882s1.601.808,2.295,1.349c.694.542,1.253,1.202,1.675,1.981.422.78.633,1.716.633,2.807,0,1.397-.362,2.654-1.087,3.771-.725,1.117-1.764,2.001-3.119,2.653-1.355.651-2.979.978-4.871.978-1.781,0-3.328-.296-4.641-.889-1.312-.592-2.344-1.412-3.094-2.461-.75-1.048-1.172-2.263-1.266-3.644h2.455c.085,1.032.426,1.905,1.022,2.621s1.372,1.26,2.327,1.63c.954.371,2.02.557,3.195.557,1.305,0,2.466-.22,3.484-.659,1.018-.438,1.819-1.052,2.403-1.841.583-.788.875-1.706.875-2.755,0-.886-.229-1.63-.69-2.23-.46-.601-1.102-1.106-1.924-1.515s-1.774-.771-2.857-1.086l-3.132-.92c-2.054-.614-3.647-1.462-4.781-2.544-1.134-1.083-1.7-2.463-1.7-4.142,0-1.406.377-2.645,1.132-3.714.754-1.069,1.776-1.905,3.067-2.506,1.292-.601,2.742-.901,4.354-.901,1.628,0,3.068.299,4.321.895,1.253.597,2.247,1.417,2.984,2.461s1.132,2.231,1.183,3.561h-2.313Z"/>
      <path class="cls-2" d="M186.857,74.125c0,2.728-.485,5.099-1.457,7.114s-2.308,3.575-4.008,4.679c-1.7,1.104-3.654,1.656-5.861,1.656s-4.161-.552-5.861-1.656c-1.7-1.104-3.034-2.663-4.002-4.679-.967-2.016-1.451-4.387-1.451-7.114s.484-5.099,1.451-7.114c.968-2.016,2.304-3.575,4.008-4.679,1.705-1.104,3.656-1.655,5.855-1.655s4.161.552,5.861,1.655c1.7,1.104,3.036,2.664,4.008,4.679s1.457,4.387,1.457,7.114ZM184.531,74.125c0-2.344-.393-4.353-1.177-6.028s-1.854-2.955-3.208-3.842c-1.355-.886-2.894-1.329-4.615-1.329-1.713,0-3.247.443-4.603,1.329-1.355.887-2.427,2.165-3.215,3.835-.789,1.67-1.183,3.682-1.183,6.034s.392,4.351,1.176,6.021c.784,1.67,1.854,2.951,3.209,3.842s2.894,1.336,4.615,1.336,3.262-.443,4.621-1.33c1.359-.886,2.432-2.167,3.216-3.842.783-1.675,1.171-3.684,1.163-6.027Z"/>
      <path class="cls-2" d="M200.773,87.216v-26.182h2.391v24.034h12.477v2.147h-14.867Z"/>
      <path class="cls-2" d="M246.609,61.035h2.391v17.335c0,1.781-.418,3.373-1.253,4.775-.835,1.401-1.997,2.505-3.483,3.311-1.487.806-3.216,1.208-5.185,1.208s-3.686-.404-5.178-1.214c-1.491-.81-2.654-1.914-3.489-3.312-.836-1.397-1.253-2.987-1.253-4.769v-17.335h2.391v17.169c0,1.39.311,2.627.933,3.714s1.498,1.941,2.628,2.563c1.129.622,2.452.933,3.969.933s2.843-.311,3.977-.933c1.133-.622,2.009-1.477,2.627-2.563.617-1.087.927-2.324.927-3.714v-17.169Z"/>
      <path class="cls-2" d="M262.503,63.182v-2.147h18.984v2.147h-8.297v24.034h-2.391v-24.034h-8.297Z"/>
      <path class="cls-2" d="M297.383,61.035v26.182h-2.391v-26.182h2.391Z"/>
      <path class="cls-2" d="M333.938,74.125c0,2.728-.485,5.099-1.457,7.114s-2.308,3.575-4.008,4.679c-1.7,1.104-3.654,1.656-5.861,1.656s-4.161-.552-5.861-1.656c-1.7-1.104-3.034-2.663-4.002-4.679-.967-2.016-1.451-4.387-1.451-7.114s.484-5.099,1.451-7.114c.968-2.016,2.304-3.575,4.008-4.679,1.705-1.104,3.656-1.655,5.855-1.655s4.161.552,5.861,1.655c1.7,1.104,3.036,2.664,4.008,4.679s1.457,4.387,1.457,7.114ZM331.612,74.125c0-2.344-.393-4.353-1.177-6.028s-1.854-2.955-3.208-3.842c-1.355-.886-2.894-1.329-4.615-1.329-1.713,0-3.247.443-4.603,1.329-1.355.887-2.427,2.165-3.215,3.835-.789,1.67-1.183,3.682-1.183,6.034s.392,4.351,1.176,6.021c.784,1.67,1.854,2.951,3.209,3.842s2.894,1.336,4.615,1.336,3.262-.443,4.621-1.33c1.359-.886,2.432-2.167,3.216-3.842.783-1.675,1.171-3.684,1.163-6.027Z"/>
      <path class="cls-2" d="M368.243,61.035v26.182h-2.327l-15.469-21.925h-.204v21.925h-2.391v-26.182h2.313l15.521,21.95h.204v-21.95h2.353Z"/>
      <path class="cls-2" d="M397.549,67.58c-.146-1.458-.789-2.617-1.931-3.478s-2.578-1.291-4.309-1.291c-1.219,0-2.29.209-3.215.626s-1.649.995-2.173,1.732c-.524.737-.786,1.575-.786,2.512,0,.69.148,1.296.447,1.815.298.52.7.965,1.208,1.336.507.371,1.069.688,1.688.953.617.264,1.242.485,1.873.665l2.761.792c.835.23,1.671.524,2.506.882s1.601.808,2.295,1.349c.694.542,1.253,1.202,1.675,1.981.422.78.633,1.716.633,2.807,0,1.397-.362,2.654-1.087,3.771-.725,1.117-1.764,2.001-3.119,2.653-1.355.651-2.979.978-4.871.978-1.781,0-3.328-.296-4.641-.889-1.312-.592-2.344-1.412-3.094-2.461-.75-1.048-1.172-2.263-1.266-3.644h2.455c.085,1.032.426,1.905,1.022,2.621s1.372,1.26,2.327,1.63c.954.371,2.02.557,3.195.557,1.305,0,2.466-.22,3.484-.659,1.018-.438,1.819-1.052,2.403-1.841.583-.788.875-1.706.875-2.755,0-.886-.229-1.63-.69-2.23-.46-.601-1.102-1.106-1.924-1.515s-1.774-.771-2.857-1.086l-3.132-.92c-2.054-.614-3.647-1.462-4.781-2.544-1.134-1.083-1.7-2.463-1.7-4.142,0-1.406.377-2.645,1.132-3.714.754-1.069,1.776-1.905,3.067-2.506,1.292-.601,2.742-.901,4.354-.901,1.628,0,3.068.299,4.321.895,1.253.597,2.247,1.417,2.984,2.461s1.132,2.231,1.183,3.561h-2.313Z"/>
    </g>
  </g>
</svg>